<svg version="1.1" id="Layer_1" xmlns="http://www.w3.org/2000/svg" xmlns:xlink="http://www.w3.org/1999/xlink" x="0px" y="0px"
	 width="100%" viewBox="0 0 1024 1024" enable-background="new 0 0 1024 1024" xml:space="preserve">

<path fill="#232336" opacity="1.000000" stroke="none" 
	d="
M970.892944,747.900085 
	C971.255554,754.330078 972.698425,760.921692 971.765198,767.157776 
	C969.540649,782.023010 967.312073,797.052429 963.047302,811.410278 
	C956.088928,834.835938 942.943970,854.862366 926.033630,872.653687 
	C906.565857,893.135803 883.410034,907.368530 856.687073,915.840149 
	C842.758057,920.255859 828.439819,923.029419 813.667297,923.026123 
	C618.505737,922.983154 423.344116,923.003723 228.182541,922.988953 
	C206.058456,922.987244 185.181290,917.409302 165.080856,908.533325 
	C147.874130,900.935059 132.387466,890.492310 119.165657,877.325073 
	C94.717697,852.978149 77.926186,824.070068 72.168716,789.657776 
	C70.207680,777.936768 69.958260,765.924988 69.055069,754.036255 
	C68.921295,752.275391 69.498627,750.460449 70.168610,747.963989 
	C70.725609,745.777283 70.979286,744.296997 70.979439,742.816772 
	C70.991066,631.205444 70.982689,519.594055 70.981003,407.515839 
	C70.997292,356.485626 71.017639,305.922272 70.981056,255.358978 
	C70.979790,253.607025 70.409668,251.855515 70.104683,250.103790 
	C71.649445,233.629211 75.530357,217.725937 82.214722,202.585617 
	C90.450066,183.932281 101.468636,167.229813 115.806763,152.511230 
	C141.141464,126.504280 171.496582,110.571716 207.268417,105.018715 
	C215.263275,103.777641 223.430023,103.089310 231.518158,103.084915 
	C424.840088,102.980003 618.162048,103.022285 811.484009,102.977196 
	C833.795898,102.971992 854.876282,108.267799 875.164307,117.111259 
	C892.705566,124.757393 908.436035,135.422302 921.955505,148.784454 
	C942.469666,169.059921 957.615601,192.975006 965.332336,220.992599 
	C968.042847,230.833755 969.119568,241.124908 970.670654,251.945160 
	C970.264343,254.158478 970.012268,255.637222 970.011963,257.116028 
	C970.001831,307.404236 970.015625,357.692474 970.017944,408.450470 
	C970.008057,520.154785 970.002197,631.389343 970.041504,742.623901 
	C970.042114,744.382690 970.596863,746.141357 970.892944,747.900085 
M77.160332,507.899506 
	C77.210274,533.929688 77.260216,559.959839 77.165512,586.917480 
	C77.140877,599.367554 77.074623,611.817688 77.100983,624.267700 
	C77.144554,644.847778 77.247864,665.427673 77.178223,686.932434 
	C77.149017,693.930847 77.093208,700.929199 77.095551,707.927612 
	C77.102852,729.757080 75.791428,751.689209 77.452675,773.393127 
	C80.269226,810.190857 95.310570,842.202026 121.296181,868.505432 
	C153.374725,900.976196 192.609055,915.975769 238.254166,915.921936 
	C426.395935,915.699951 614.538147,915.842773 802.680176,915.786987 
	C810.656921,915.784607 818.710754,915.729492 826.596619,914.693359 
	C858.815247,910.460571 887.322693,897.878235 911.673340,876.091858 
	C942.379822,848.618774 960.502930,814.292786 963.428345,773.449158 
	C965.505737,744.444153 963.729309,715.163147 963.832275,685.077637 
	C963.857788,676.279541 963.920532,667.481323 963.901550,658.683289 
	C963.849304,634.449890 963.762878,610.216431 963.825500,585.057739 
	C963.780945,559.028687 963.736389,532.999573 963.828491,506.046753 
	C963.847229,490.096405 963.906433,474.145935 963.873474,458.195709 
	C963.838806,441.420319 963.715881,424.645142 963.802795,406.963959 
	C963.764465,375.631287 963.726135,344.298584 963.835205,312.043793 
	C963.848145,296.379486 963.687195,280.712708 963.912415,265.051453 
	C964.306091,237.683167 957.419617,212.118759 943.395874,188.886719 
	C911.556519,136.141129 864.169678,110.100266 802.751221,110.053337 
	C614.606140,109.909569 426.460724,109.919968 238.315857,110.174522 
	C225.091660,110.192413 211.627304,111.526215 198.689880,114.232925 
	C137.738007,126.985001 87.561272,179.287933 79.323593,240.663467 
	C76.134277,264.425751 77.842651,288.845367 77.155579,313.894135 
	C77.145477,324.727051 77.102669,335.560059 77.132309,346.392853 
	C77.188385,366.886475 77.286072,387.379974 77.188972,408.814514 
	C77.229195,441.533081 77.269409,474.251678 77.160332,507.899506 
z"/>
<path fill="#312F42" opacity="1.000000" stroke="none" 
	d="
M70.975883,407.982727 
	C70.982689,519.594055 70.991066,631.205444 70.979439,742.816772 
	C70.979286,744.296997 70.725609,745.777283 70.348419,747.577026 
	C70.072838,703.400085 70.015358,658.903625 70.010857,614.407227 
	C70.003929,545.911560 70.033325,477.415863 70.301910,408.454407 
	C70.556503,407.988647 70.975883,407.982727 70.975883,407.982727 
z"/>
<path fill="#312F42" opacity="1.000000" stroke="none" 
	d="
M970.927368,747.442261 
	C970.596863,746.141357 970.042114,744.382690 970.041504,742.623901 
	C970.002197,631.389343 970.008057,520.154785 970.225952,408.453461 
	C970.442139,407.986664 970.858826,407.982849 970.858826,407.982849 
	C970.907837,409.145996 970.999817,410.309113 970.999695,411.472260 
	C970.991577,523.309692 970.976440,635.147095 970.927368,747.442261 
z"/>
<path fill="#443A3B" opacity="1.000000" stroke="none" 
	d="
M70.981003,407.515839 
	C70.975883,407.982727 70.556503,407.988647 70.347443,407.986816 
	C70.095268,379.324646 70.036705,350.664337 70.013847,322.003998 
	C69.994972,298.341949 70.018318,274.679932 70.063820,250.560837 
	C70.409668,251.855515 70.979790,253.607025 70.981056,255.358978 
	C71.017639,305.922272 70.997292,356.485626 70.981003,407.515839 
z"/>
<path fill="#43393B" opacity="1.000000" stroke="none" 
	d="
M970.903320,407.517273 
	C970.858826,407.982849 970.442139,407.986664 970.234070,407.983673 
	C970.015625,357.692474 970.001831,307.404236 970.011963,257.116028 
	C970.012268,255.637222 970.264343,254.158478 970.664246,252.368057 
	C970.935547,303.721527 970.941650,355.386627 970.903320,407.517273 
z"/>
<path fill="#6060A2" opacity="1.000000" stroke="none" 
	d="
M963.672974,686.005310 
	C963.729309,715.163147 965.505737,744.444153 963.428345,773.449158 
	C960.502930,814.292786 942.379822,848.618774 911.673340,876.091858 
	C887.322693,897.878235 858.815247,910.460571 826.596619,914.693359 
	C818.710754,915.729492 810.656921,915.784607 802.680176,915.786987 
	C614.538147,915.842773 426.395935,915.699951 238.254166,915.921936 
	C192.609055,915.975769 153.374725,900.976196 121.296181,868.505432 
	C95.310570,842.202026 80.269226,810.190857 77.452675,773.393127 
	C75.791428,751.689209 77.102852,729.757080 77.095551,707.927612 
	C77.093208,700.929199 77.149017,693.930847 77.694298,686.468933 
	C128.197113,686.000793 178.183853,685.996155 228.274963,686.447388 
	C228.038177,705.714722 231.048004,724.011841 237.268021,741.730652 
	C238.097855,744.094604 240.669357,745.847168 242.434296,747.882874 
	C244.177612,746.182617 246.377838,744.754150 247.580521,742.732300 
	C251.551453,736.056580 254.502472,728.684387 259.051422,722.461365 
	C267.848755,710.426453 280.735413,704.111938 294.689636,700.028870 
	C314.517578,694.227173 334.997986,693.936462 355.445923,692.886230 
	C382.336548,691.505127 409.193817,689.348511 436.031372,687.116089 
	C448.474030,686.081055 460.732758,681.434204 473.344757,686.205139 
	C480.019989,688.730347 486.781281,691.060730 493.607239,693.139099 
	C496.461334,694.008118 500.159424,695.157654 502.416931,694.041687 
	C504.510315,693.006836 505.195160,689.122681 506.812531,685.864014 
	C518.841675,685.864014 531.619568,685.864014 544.910767,685.897705 
	C612.300903,685.956726 679.177795,685.985962 746.054626,685.999878 
	C751.542969,686.000977 757.031311,685.897400 762.855225,685.897339 
	C765.756226,687.112427 768.408630,688.113464 770.872375,689.459595 
	C782.929993,696.047791 794.145996,696.490051 804.278564,685.634460 
	C805.165466,684.684265 807.799622,684.791626 809.424011,685.198792 
	C818.083679,687.368713 826.705017,689.703674 835.291199,692.151245 
	C842.923706,694.327087 849.000671,692.419617 854.007202,685.859741 
	C890.894043,685.940186 927.283508,685.972717 963.672974,686.005310 
z"/>
<path fill="#FFB658" opacity="1.000000" stroke="none" 
	d="
M77.319794,312.965515 
	C77.842651,288.845367 76.134277,264.425751 79.323593,240.663467 
	C87.561272,179.287933 137.738007,126.985001 198.689880,114.232925 
	C211.627304,111.526215 225.091660,110.192413 238.315857,110.174522 
	C426.460724,109.919968 614.606140,109.909569 802.751221,110.053337 
	C864.169678,110.100266 911.556519,136.141129 943.395874,188.886719 
	C957.419617,212.118759 964.306091,237.683167 963.912415,265.051453 
	C963.687195,280.712708 963.848145,296.379486 963.313354,312.510956 
	C909.874512,312.988983 856.957397,313.011230 804.040405,312.959808 
	C802.327393,312.958160 800.615234,312.203461 799.073792,311.519379 
	C806.844543,305.803436 814.444092,300.367950 822.193604,294.825226 
	C788.227051,277.010406 767.669922,249.143372 760.664673,209.819962 
	C756.172913,248.702072 737.840515,277.137146 706.424194,297.017731 
	C713.456116,302.481934 720.228394,307.744354 726.531982,313.008911 
	C654.546570,313.011017 583.029846,313.013397 511.513092,313.004150 
	C507.855652,313.003662 504.198242,312.903870 500.664368,312.510712 
	C500.256195,309.809418 500.459869,306.735901 499.022461,305.250854 
	C496.801086,302.955841 493.550446,301.555756 490.573883,300.110687 
	C478.417389,294.208984 465.291534,291.954529 452.038269,290.477020 
	C448.604156,290.094177 446.796661,288.557312 445.062378,285.849518 
	C422.285309,250.286194 394.587433,219.292191 359.538330,195.384659 
	C353.358246,191.169128 346.350616,186.902008 339.202026,185.653259 
	C326.997894,183.521393 314.386810,183.563370 301.931458,183.106720 
	C297.327789,182.937958 295.287842,186.126541 297.740051,189.495834 
	C300.854095,193.774490 300.639374,197.490021 299.171722,202.327652 
	C297.159332,208.960526 300.340179,214.095886 305.825623,215.302017 
	C310.988312,216.437180 314.170837,213.864670 316.014832,207.098602 
	C316.085541,206.839203 316.398773,206.645905 317.194611,205.755142 
	C354.170715,228.661850 383.332275,259.948181 411.906860,293.404388 
	C395.037109,296.539856 382.095459,304.541199 369.504333,313.799744 
	C366.829651,313.423004 364.527283,313.037933 362.224731,313.036835 
	C267.256409,312.991547 172.288101,312.980682 77.319794,312.965515 
M317.479980,219.348053 
	C316.633484,220.424561 315.292175,221.392471 315.027924,222.596741 
	C314.000763,227.277344 313.152588,232.013077 312.571442,236.769073 
	C312.277466,239.175217 312.272675,241.780838 312.887115,244.097336 
	C313.944275,248.083160 317.008179,249.674789 320.970673,248.728149 
	C324.957245,247.775772 326.000092,244.931061 325.224274,241.072372 
	C324.081512,235.388336 323.326630,229.615784 321.928680,223.999893 
	C321.494202,222.254639 319.509735,220.895218 317.479980,219.348053 
z"/>
<path fill="#E9A85B" opacity="1.000000" stroke="none" 
	d="
M798.902649,311.799805 
	C800.615234,312.203461 802.327393,312.958160 804.040405,312.959808 
	C856.957397,313.011230 909.874512,312.988983 963.239746,312.972015 
	C963.726135,344.298584 963.764465,375.631287 963.273315,407.422760 
	C960.744385,407.898071 958.744934,407.928833 956.745483,407.929047 
	C817.768738,407.943878 678.791992,407.956299 539.562500,407.768341 
	C528.721863,393.046082 518.140991,378.519287 507.541321,364.006226 
	C504.756683,360.193512 501.680176,358.645966 497.754547,362.708771 
	C497.107727,363.378174 495.861694,363.468658 494.658661,363.913147 
	C494.752808,363.036835 494.692291,362.658203 494.840607,362.399261 
	C495.251831,361.681183 495.732239,361.000153 496.216705,360.327026 
	C500.416016,354.492676 500.011536,353.868774 495.199829,348.632141 
	C490.304291,343.304199 486.125336,337.317841 481.781006,331.808075 
	C486.415039,324.186523 490.772339,316.527405 499.705109,313.391876 
	C500.009521,313.285004 500.263367,313.034088 500.540802,312.850342 
	C504.198242,312.903870 507.855652,313.003662 511.513092,313.004150 
	C583.029846,313.013397 654.546570,313.011017 726.830078,313.156158 
	C744.866516,329.150146 756.077454,348.625732 761.325195,370.562775 
	C766.141785,359.893219 770.389282,348.741425 776.075684,338.379242 
	C781.735046,328.066406 789.070251,318.747070 798.902649,311.799805 
M656.133606,365.370392 
	C664.356812,371.799561 668.992859,380.658386 672.771912,391.738586 
	C677.073792,376.442841 685.744141,366.361786 698.730835,358.754120 
	C684.665527,350.982086 676.059143,339.905212 672.201721,324.823853 
	C669.177856,339.652130 661.513000,351.247009 648.767822,359.636383 
	C651.423340,361.695404 653.500183,363.305664 656.133606,365.370392 
z"/>
<path fill="#B18A75" opacity="1.000000" stroke="none" 
	d="
M539.815247,407.968903 
	C678.791992,407.956299 817.768738,407.943878 956.745483,407.929047 
	C958.744934,407.928833 960.744385,407.898071 963.187683,407.875732 
	C963.715881,424.645142 963.838806,441.420319 963.873474,458.195709 
	C963.906433,474.145935 963.847229,490.096405 963.313965,506.518982 
	C960.133301,507.002289 957.467163,507.022491 954.800964,507.023102 
	C858.481750,507.045013 762.162537,507.065063 665.555420,506.923187 
	C660.995667,503.079865 656.723877,499.398712 652.502869,495.761322 
	C656.519592,486.276794 654.778992,482.777557 644.775635,480.550018 
	C628.945557,477.024994 614.206848,470.861542 599.648560,463.746765 
	C587.041687,457.585571 573.584717,453.170563 560.551514,447.865631 
	C559.188538,447.310822 557.642944,446.198334 557.041260,444.935303 
	C551.194397,432.663116 545.531006,420.303558 539.815247,407.968903 
z"/>
<path fill="#927983" opacity="1.000000" stroke="none" 
	d="
M665.843323,507.085358 
	C762.162537,507.065063 858.481750,507.045013 954.800964,507.023102 
	C957.467163,507.022491 960.133301,507.002289 963.245667,506.980835 
	C963.736389,532.999573 963.780945,559.028687 963.313354,585.528442 
	C908.993347,586.007568 855.185364,586.007874 801.377441,586.054321 
	C799.256470,586.056152 797.135803,586.497314 794.666260,586.690552 
	C782.233032,582.455994 770.308472,577.702698 758.026733,574.203491 
	C739.177490,568.833130 720.071350,564.367798 701.113525,559.369263 
	C699.614868,558.974121 697.687317,557.687439 697.198792,556.359131 
	C690.314453,537.640747 679.864685,521.238525 665.843323,507.085358 
z"/>
<path fill="#E9A85B" opacity="1.000000" stroke="none" 
	d="
M77.237686,313.429810 
	C172.288101,312.980682 267.256409,312.991547 362.224731,313.036835 
	C364.527283,313.037933 366.829651,313.423004 369.341919,314.086212 
	C364.910980,320.119324 359.037323,321.148071 351.897064,321.067749 
	C320.105225,320.709930 294.086548,333.406494 273.752014,357.695953 
	C261.569611,372.247772 254.933533,389.325470 251.431610,407.915222 
	C193.101959,407.902496 135.234207,407.888000 77.366470,407.873505 
	C77.286072,387.379974 77.188385,366.886475 77.132309,346.392853 
	C77.102669,335.560059 77.145477,324.727051 77.237686,313.429810 
z"/>
<path fill="#726793" opacity="1.000000" stroke="none" 
	d="
M228.170593,685.991516 
	C178.183853,685.996155 128.197113,686.000793 77.768188,686.006592 
	C77.247864,665.427673 77.144554,644.847778 77.100983,624.267700 
	C77.074623,611.817688 77.140877,599.367554 77.682396,586.459656 
	C151.504333,586.009583 224.809402,586.005005 298.114380,586.080383 
	C300.484833,586.082825 302.854462,586.901489 304.979004,587.578735 
	C296.069946,593.380615 287.471649,599.049255 278.708527,604.450378 
	C275.513824,606.419434 274.401001,609.028687 275.120300,612.405273 
	C277.120392,621.793884 279.262909,631.152771 281.434845,640.503540 
	C281.858795,642.328674 282.668701,644.064148 283.300568,645.841003 
	C282.944275,646.114685 282.587952,646.388306 282.231659,646.661926 
	C278.899292,644.296753 275.304230,642.221375 272.298096,639.496338 
	C268.122192,635.710754 264.301331,631.516907 260.499207,627.342285 
	C258.416565,625.055603 256.406586,624.524109 254.150101,626.771484 
	C250.947678,629.960999 247.332169,632.910278 244.848038,636.604370 
	C241.355865,641.797363 237.761261,647.280640 235.961792,653.174500 
	C232.685333,663.906067 230.696609,675.030823 228.170593,685.991516 
z"/>
<path fill="#B18A75" opacity="1.000000" stroke="none" 
	d="
M77.277725,408.343994 
	C135.234207,407.888000 193.101959,407.902496 251.464783,408.343811 
	C250.059433,426.669617 251.967102,444.154846 259.842285,460.385803 
	C267.140808,475.428314 267.067871,491.178955 266.130920,507.125488 
	C262.459656,507.073761 259.296478,507.028687 256.133301,507.027496 
	C196.525406,507.005341 136.917526,506.988342 77.309631,506.970245 
	C77.269409,474.251678 77.229195,441.533081 77.277725,408.343994 
z"/>
<path fill="#927983" opacity="1.000000" stroke="none" 
	d="
M77.234985,507.434875 
	C136.917526,506.988342 196.525406,507.005341 256.133301,507.027496 
	C259.296478,507.028687 262.459656,507.073761 266.133606,507.568268 
	C265.442017,523.034241 261.142456,537.047424 253.580246,550.088501 
	C251.586136,553.527405 249.655289,557.141663 248.601379,560.927673 
	C248.086899,562.775818 248.981918,566.002991 250.414734,567.208069 
	C253.738998,570.004028 260.614624,569.519226 263.888824,566.632263 
	C266.432678,564.389221 268.433838,564.001038 271.776154,565.468811 
	C280.933899,569.490662 284.683228,567.798279 289.128754,558.707092 
	C290.375549,556.157471 291.545380,553.570190 292.674622,551.162048 
	C297.741394,561.958191 302.511566,572.367126 307.527222,582.656433 
	C308.981201,585.639160 307.502808,586.525879 305.224487,587.339722 
	C302.854462,586.901489 300.484833,586.082825 298.114380,586.080383 
	C224.809402,586.005005 151.504333,586.009583 77.754715,585.995911 
	C77.260216,559.959839 77.210274,533.929688 77.234985,507.434875 
z"/>
<path fill="#726793" opacity="1.000000" stroke="none" 
	d="
M795.015015,586.733704 
	C797.135803,586.497314 799.256470,586.056152 801.377441,586.054321 
	C855.185364,586.007874 908.993347,586.007568 963.245605,585.991089 
	C963.762878,610.216431 963.849304,634.449890 963.901550,658.683289 
	C963.920532,667.481323 963.857788,676.279541 963.752625,685.541504 
	C927.283508,685.972717 890.894043,685.940186 854.161865,685.543091 
	C863.778687,671.892822 869.427856,656.741943 872.779175,640.668030 
	C874.307983,633.335205 873.118713,626.776428 865.907776,622.560974 
	C856.041809,616.793518 846.532227,610.327820 836.329224,605.247314 
	C822.831543,598.526367 808.810913,592.855774 795.015015,586.733704 
z"/>
<path fill="#F9F7F7" opacity="1.000000" stroke="none" 
	d="
M794.666260,586.690552 
	C808.810913,592.855774 822.831543,598.526367 836.329224,605.247314 
	C846.532227,610.327820 856.041809,616.793518 865.907776,622.560974 
	C873.118713,626.776428 874.307983,633.335205 872.779175,640.668030 
	C869.427856,656.741943 863.778687,671.892822 853.664551,685.495117 
	C849.000671,692.419617 842.923706,694.327087 835.291199,692.151245 
	C826.705017,689.703674 818.083679,687.368713 809.424011,685.198792 
	C807.799622,684.791626 805.165466,684.684265 804.278564,685.634460 
	C794.145996,696.490051 782.929993,696.047791 770.872375,689.459595 
	C768.408630,688.113464 765.756226,687.112427 762.602173,685.627563 
	C730.993652,668.378357 704.989868,644.637268 677.734863,622.616943 
	C676.820618,623.362793 676.270813,623.737854 675.807556,624.199646 
	C648.936829,650.987732 615.882690,666.922852 580.208862,677.896057 
	C568.557129,681.480042 556.350403,683.259338 544.397461,685.864014 
	C531.619568,685.864014 518.841675,685.864014 506.812531,685.864014 
	C505.195160,689.122681 504.510315,693.006836 502.416931,694.041687 
	C500.159424,695.157654 496.461334,694.008118 493.607239,693.139099 
	C486.781281,691.060730 480.019989,688.730347 473.344757,686.205139 
	C460.732758,681.434204 448.474030,686.081055 436.031372,687.116089 
	C409.193817,689.348511 382.336548,691.505127 355.445923,692.886230 
	C334.997986,693.936462 314.517578,694.227173 294.689636,700.028870 
	C280.735413,704.111938 267.848755,710.426453 259.051422,722.461365 
	C254.502472,728.684387 251.551453,736.056580 247.580521,742.732300 
	C246.377838,744.754150 244.177612,746.182617 242.434296,747.882874 
	C240.669357,745.847168 238.097855,744.094604 237.268021,741.730652 
	C231.048004,724.011841 228.038177,705.714722 228.274963,686.447388 
	C230.696609,675.030823 232.685333,663.906067 235.961792,653.174500 
	C237.761261,647.280640 241.355865,641.797363 244.848038,636.604370 
	C247.332169,632.910278 250.947678,629.960999 254.150101,626.771484 
	C256.406586,624.524109 258.416565,625.055603 260.499207,627.342285 
	C264.301331,631.516907 268.122192,635.710754 272.298096,639.496338 
	C275.304230,642.221375 278.899292,644.296753 282.231659,646.661926 
	C282.587952,646.388306 282.944275,646.114685 283.300568,645.841003 
	C282.668701,644.064148 281.858795,642.328674 281.434845,640.503540 
	C279.262909,631.152771 277.120392,621.793884 275.120300,612.405273 
	C274.401001,609.028687 275.513824,606.419434 278.708527,604.450378 
	C287.471649,599.049255 296.069946,593.380615 304.979004,587.578735 
	C307.502808,586.525879 308.981201,585.639160 307.527222,582.656433 
	C302.511566,572.367126 297.741394,561.958191 292.674622,551.162048 
	C291.545380,553.570190 290.375549,556.157471 289.128754,558.707092 
	C284.683228,567.798279 280.933899,569.490662 271.776154,565.468811 
	C268.433838,564.001038 266.432678,564.389221 263.888824,566.632263 
	C260.614624,569.519226 253.738998,570.004028 250.414734,567.208069 
	C248.981918,566.002991 248.086899,562.775818 248.601379,560.927673 
	C249.655289,557.141663 251.586136,553.527405 253.580246,550.088501 
	C261.142456,537.047424 265.442017,523.034241 266.641663,507.595337 
	C267.067871,491.178955 267.140808,475.428314 259.842285,460.385803 
	C251.967102,444.154846 250.059433,426.669617 251.926697,408.342041 
	C254.933533,389.325470 261.569611,372.247772 273.752014,357.695953 
	C294.086548,333.406494 320.105225,320.709930 351.897064,321.067749 
	C359.037323,321.148071 364.910980,320.119324 369.714111,314.256958 
	C382.095459,304.541199 395.037109,296.539856 411.906860,293.404388 
	C383.332275,259.948181 354.170715,228.661850 317.194611,205.755142 
	C316.398773,206.645905 316.085541,206.839203 316.014832,207.098602 
	C314.170837,213.864670 310.988312,216.437180 305.825623,215.302017 
	C300.340179,214.095886 297.159332,208.960526 299.171722,202.327652 
	C300.639374,197.490021 300.854095,193.774490 297.740051,189.495834 
	C295.287842,186.126541 297.327789,182.937958 301.931458,183.106720 
	C314.386810,183.563370 326.997894,183.521393 339.202026,185.653259 
	C346.350616,186.902008 353.358246,191.169128 359.538330,195.384659 
	C394.587433,219.292191 422.285309,250.286194 445.062378,285.849518 
	C446.796661,288.557312 448.604156,290.094177 452.038269,290.477020 
	C465.291534,291.954529 478.417389,294.208984 490.573883,300.110687 
	C493.550446,301.555756 496.801086,302.955841 499.022461,305.250854 
	C500.459869,306.735901 500.256195,309.809418 500.664368,312.510742 
	C500.263367,313.034088 500.009521,313.285004 499.705109,313.391876 
	C490.772339,316.527405 486.415039,324.186523 481.781006,331.808075 
	C486.125336,337.317841 490.304291,343.304199 495.199829,348.632141 
	C500.011536,353.868774 500.416016,354.492676 496.216705,360.327026 
	C495.732239,361.000153 495.251831,361.681183 494.840607,362.399261 
	C494.692291,362.658203 494.752808,363.036835 494.658661,363.913147 
	C495.861694,363.468658 497.107727,363.378174 497.754547,362.708771 
	C501.680176,358.645966 504.756683,360.193512 507.541321,364.006226 
	C518.140991,378.519287 528.721863,393.046082 539.562500,407.768341 
	C545.531006,420.303558 551.194397,432.663116 557.041260,444.935303 
	C557.642944,446.198334 559.188538,447.310822 560.551514,447.865631 
	C573.584717,453.170563 587.041687,457.585571 599.648560,463.746765 
	C614.206848,470.861542 628.945557,477.024994 644.775635,480.550018 
	C654.778992,482.777557 656.519592,486.276794 652.502869,495.761322 
	C656.723877,499.398712 660.995667,503.079865 665.555420,506.923187 
	C679.864685,521.238525 690.314453,537.640747 697.198792,556.359131 
	C697.687317,557.687439 699.614868,558.974121 701.113525,559.369263 
	C720.071350,564.367798 739.177490,568.833130 758.026733,574.203491 
	C770.308472,577.702698 782.233032,582.455994 794.666260,586.690552 
M429.959137,273.450928 
	C429.815552,273.121185 429.566589,272.925659 428.993378,272.212708 
	C419.215057,260.509979 410.133118,248.125626 399.498505,237.261032 
	C382.672852,220.071548 364.997864,203.663788 343.211548,191.338791 
	C329.227203,188.541595 315.229095,185.910934 299.392670,187.211716 
	C305.209564,192.340057 304.943451,197.192261 302.407990,202.531174 
	C301.729828,203.959259 301.777344,206.627594 302.693085,207.711884 
	C304.151550,209.438751 306.617920,210.314392 308.658020,211.550018 
	C309.561707,209.521545 310.934723,207.562592 311.248077,205.446701 
	C311.624084,202.907761 311.096924,200.235077 310.904633,196.540497 
	C313.887115,198.655838 315.515839,200.104767 317.391541,201.077316 
	C320.804596,202.846909 324.364258,204.333588 328.345490,206.432312 
	C353.043854,223.400833 374.469818,244.041855 394.689240,265.978180 
	C401.321869,273.174042 407.268646,281.002106 413.622314,288.872406 
	C413.622314,288.872406 413.904419,289.068451 414.060883,289.648071 
	C414.705994,290.113098 415.351074,290.578094 416.095734,291.716766 
	C417.163391,293.219849 418.231018,294.722961 418.673706,296.688629 
	C398.075134,299.602509 381.011414,309.761536 365.469879,322.896362 
	C364.680298,323.563690 364.605347,326.174072 365.252075,327.240112 
	C367.289917,330.599335 369.830536,333.653534 371.865204,337.341705 
	C371.774628,337.520966 371.684052,337.700226 370.992798,337.506866 
	C364.162079,330.663086 357.634705,323.426788 346.264252,326.086914 
	C340.943146,327.331848 335.326538,327.321533 330.012665,328.588287 
	C272.344238,342.335449 241.469604,402.509674 264.167664,457.442688 
	C272.467804,477.530396 274.608704,498.238251 269.760254,518.958557 
	C266.710083,531.993713 259.910126,544.150940 254.799225,556.704834 
	C253.775299,559.219910 252.782333,561.747498 251.734528,564.370850 
	C262.577148,567.646545 265.953491,557.492798 273.316193,553.721802 
	C272.704468,556.798645 272.232605,559.172180 271.758606,561.556396 
	C280.100586,562.938599 281.173187,562.810181 284.801697,556.028809 
	C287.504791,550.976929 289.217041,545.388123 291.278320,540.003113 
	C292.050476,537.985901 292.561890,535.868774 293.420135,533.048035 
	C298.948608,552.084961 304.498688,570.105408 314.408539,586.772217 
	C303.940002,593.470581 293.539093,600.278687 282.961792,606.800659 
	C279.783447,608.760437 279.083679,610.887329 279.520966,614.531921 
	C280.949219,626.434692 283.133942,638.089172 287.760193,649.627808 
	C286.194244,650.499451 284.628296,651.371155 282.522400,651.788147 
	C273.882996,644.522644 265.243561,637.257202 255.743118,629.267639 
	C255.146545,631.518921 252.851288,635.430359 253.923553,636.923706 
	C259.818604,645.133789 266.764313,652.497253 276.012817,657.647827 
	C275.690491,657.871704 275.368134,658.095581 274.354279,658.053040 
	C265.893036,652.045593 257.431824,646.038147 248.921371,639.995789 
	C230.832825,663.009460 227.304733,725.557922 243.708679,741.399780 
	C244.640778,732.526001 249.494690,725.393677 254.132919,718.026794 
	C254.132919,718.026794 254.242874,718.249146 254.841660,717.955566 
	C257.852570,715.100220 260.617889,711.917297 263.915619,709.444458 
	C280.911316,696.700134 300.335846,690.410889 321.336243,689.033142 
	C350.052124,687.149231 378.819855,685.996948 407.509613,683.802368 
	C419.185333,682.909241 430.714691,680.103210 443.117340,678.148499 
	C444.687256,677.967896 446.257172,677.787292 448.687256,677.793396 
	C466.454865,681.539795 484.222473,685.286194 502.566376,689.154114 
	C501.719849,687.893555 501.010223,686.392639 499.897644,685.303223 
	C498.751099,684.180481 497.212250,683.458374 495.222687,682.152527 
	C565.493347,683.857666 627.017456,664.340027 677.587097,614.649475 
	C677.622375,614.669067 678.098938,614.852661 678.479980,615.156311 
	C700.310120,632.550476 722.086914,650.012146 743.974670,667.333496 
	C754.973389,676.037781 766.785522,683.292725 780.484619,687.146912 
	C790.484009,689.960144 797.520447,687.402649 803.194580,678.423157 
	C799.233459,675.677734 795.276611,672.935303 792.245422,670.059692 
	C792.552185,670.004211 792.858948,669.948792 793.825684,670.093628 
	C807.268311,678.803162 821.157898,686.400330 837.382507,688.666321 
	C840.932861,689.162231 843.686157,688.375916 845.746094,685.623230 
	C855.990356,671.933533 863.775757,657.095093 866.810059,640.056213 
	C867.758667,634.729248 866.158264,630.675293 861.412231,627.859314 
	C853.019348,622.879761 844.968445,617.235596 836.272095,612.870361 
	C792.419861,590.857971 746.137024,575.677063 698.370544,564.859619 
	C695.223755,564.147034 694.103760,562.524597 692.734558,559.755981 
	C687.387146,548.942688 682.200439,537.931335 675.591553,527.890381 
	C667.177246,515.106445 656.150146,504.513031 642.878967,496.392792 
	C645.712219,494.114868 648.109192,492.187714 651.349243,489.582764 
	C648.062683,488.331940 646.218079,487.656921 644.393677,486.931305 
	C626.761597,479.918457 609.175781,472.787018 591.488586,465.916260 
	C579.358765,461.204346 567.089355,456.851562 554.568359,452.030029 
	C554.123779,451.651672 553.679199,451.273315 553.115967,450.147247 
	C542.411621,417.834717 523.299072,390.467224 503.480164,364.080536 
	C494.476196,369.412689 486.200104,374.313812 477.351105,378.910217 
	C477.243134,378.297302 477.135193,377.684418 477.639496,376.791016 
	C483.822418,369.505920 490.005341,362.220856 496.290924,354.814819 
	C494.533600,352.897308 493.363495,351.620544 492.090363,350.231323 
	C488.665802,355.018860 485.572540,359.501038 482.277954,363.829987 
	C481.524384,364.820129 480.076782,365.282104 478.957489,365.288879 
	C481.933990,361.144165 484.803955,356.917084 487.921478,352.881317 
	C490.325317,349.769440 490.421326,347.371735 487.393066,344.406799 
	C483.303101,340.402374 479.748444,335.851257 476.514435,331.062927 
	C478.993683,327.862701 481.586243,324.740143 483.871368,321.406830 
	C484.433105,320.587494 483.992035,319.080688 484.001862,317.494385 
	C484.001862,317.494385 484.011292,317.098846 484.623840,316.724182 
	C489.094421,314.525757 493.565002,312.327332 498.799957,309.753021 
	C496.719543,308.200928 495.999908,307.486603 495.138000,307.059235 
	C493.515503,306.254639 491.827545,305.572876 490.137909,304.914246 
	C475.236816,299.105682 459.756866,295.766083 443.736298,293.433350 
	C439.861908,287.945831 435.987518,282.458313 431.981873,276.353607 
	C431.333679,275.547943 430.685455,274.742279 429.959137,273.450928 
M493.278687,364.480713 
	C493.500671,364.503662 493.722656,364.526581 493.944641,364.549530 
	C493.844788,364.429993 493.744965,364.310455 493.278687,364.480713 
z"/>
<path fill="#736894" opacity="1.000000" stroke="none" 
	d="
M544.910767,685.897705 
	C556.350403,683.259338 568.557129,681.480042 580.208862,677.896057 
	C615.882690,666.922852 648.936829,650.987732 675.807556,624.199646 
	C676.270813,623.737854 676.820618,623.362793 677.734863,622.616943 
	C704.989868,644.637268 730.993652,668.378357 762.266602,685.572632 
	C757.031311,685.897400 751.542969,686.000977 746.054626,685.999878 
	C679.177795,685.985962 612.300903,685.956726 544.910767,685.897705 
z"/>
<path fill="#FFEFB6" opacity="1.000000" stroke="none" 
	d="
M799.073792,311.519348 
	C789.070251,318.747070 781.735046,328.066406 776.075684,338.379242 
	C770.389282,348.741425 766.141785,359.893219 761.325195,370.562775 
	C756.077454,348.625732 744.866516,329.150146 727.298706,313.154053 
	C720.228394,307.744354 713.456116,302.481934 706.424194,297.017731 
	C737.840515,277.137146 756.172913,248.702072 760.664673,209.819962 
	C767.669922,249.143372 788.227051,277.010406 822.193604,294.825226 
	C814.444092,300.367950 806.844543,305.803436 799.073792,311.519348 
z"/>
<path fill="#FAF6F2" opacity="1.000000" stroke="none" 
	d="
M317.857422,219.353607 
	C319.509735,220.895218 321.494202,222.254639 321.928680,223.999893 
	C323.326630,229.615784 324.081512,235.388336 325.224274,241.072372 
	C326.000092,244.931061 324.957245,247.775772 320.970673,248.728149 
	C317.008179,249.674789 313.944275,248.083160 312.887115,244.097336 
	C312.272675,241.780838 312.277466,239.175217 312.571442,236.769073 
	C313.152588,232.013077 314.000763,227.277344 315.027924,222.596741 
	C315.292175,221.392471 316.633484,220.424561 317.857422,219.353607 
M317.005188,228.801331 
	C316.589478,233.234192 315.924408,237.666336 315.911530,242.100372 
	C315.907684,243.413254 317.741516,244.731476 318.733246,246.047256 
	C319.559631,244.640701 321.213776,243.142426 321.069794,241.843414 
	C320.429749,236.067444 319.274750,230.348541 318.221313,224.107803 
	C317.774200,225.641769 317.427032,226.832764 317.005188,228.801331 
z"/>
<path fill="#FEEEB5" opacity="1.000000" stroke="none" 
	d="
M655.855286,365.143158 
	C653.500183,363.305664 651.423340,361.695404 648.767822,359.636383 
	C661.513000,351.247009 669.177856,339.652130 672.201721,324.823853 
	C676.059143,339.905212 684.665527,350.982086 698.730835,358.754120 
	C685.744141,366.361786 677.073792,376.442841 672.771912,391.738586 
	C668.992859,380.658386 664.356812,371.799561 655.855286,365.143158 
z"/>
<path fill="#232336" opacity="1.000000" stroke="none" 
	d="
M554.882385,452.338226 
	C567.089355,456.851562 579.358765,461.204346 591.488586,465.916260 
	C609.175781,472.787018 626.761597,479.918457 644.393677,486.931305 
	C646.218079,487.656921 648.062683,488.331940 651.349243,489.582764 
	C648.109192,492.187714 645.712219,494.114868 642.878967,496.392792 
	C656.150146,504.513031 667.177246,515.106445 675.591553,527.890381 
	C682.200439,537.931335 687.387146,548.942688 692.734558,559.755981 
	C694.103760,562.524597 695.223755,564.147034 698.370544,564.859619 
	C746.137024,575.677063 792.419861,590.857971 836.272095,612.870361 
	C844.968445,617.235596 853.019348,622.879761 861.412231,627.859314 
	C866.158264,630.675293 867.758667,634.729248 866.810059,640.056213 
	C863.775757,657.095093 855.990356,671.933533 845.746094,685.623230 
	C843.686157,688.375916 840.932861,689.162231 837.382507,688.666321 
	C821.157898,686.400330 807.268311,678.803162 793.321350,669.699341 
	C789.895447,667.467834 786.973816,665.630615 784.052246,663.793396 
	C783.821960,664.150269 783.591736,664.507141 783.361511,664.863953 
	C786.014221,666.640259 788.666992,668.416565 791.319763,670.192871 
	C795.276611,672.935303 799.233459,675.677734 803.194580,678.423157 
	C797.520447,687.402649 790.484009,689.960144 780.484619,687.146912 
	C766.785522,683.292725 754.973389,676.037781 743.974670,667.333496 
	C722.086914,650.012146 700.310120,632.550476 678.479980,615.156311 
	C678.098938,614.852661 677.622375,614.669067 677.587097,614.649475 
	C627.017456,664.340027 565.493347,683.857666 495.222687,682.152527 
	C497.212250,683.458374 498.751099,684.180481 499.897644,685.303223 
	C501.010223,686.392639 501.719849,687.893555 502.566376,689.154114 
	C484.222473,685.286194 466.454865,681.539795 448.602539,677.605591 
	C449.136505,676.422668 450.500000,675.176208 450.261810,674.470337 
	C446.874725,664.433167 443.890167,654.191772 439.572937,644.553040 
	C433.222504,630.375183 423.488037,618.353210 413.246399,606.839600 
	C415.409882,605.996521 417.259094,605.345154 419.481323,604.781372 
	C450.628906,615.387329 476.691650,631.680298 490.602753,663.372681 
	C497.168976,660.007080 503.432678,656.966980 509.538177,653.636780 
	C532.545776,641.087280 549.535156,623.159729 558.883667,598.354858 
	C560.281860,594.645020 559.654419,591.935303 557.435974,588.728333 
	C546.143372,572.403809 532.220276,558.497192 516.959900,546.098572 
	C508.526184,539.246399 498.513519,534.337646 489.154297,528.239136 
	C489.385986,526.941711 489.675934,525.957947 490.327637,525.052246 
	C520.713928,535.988037 542.903564,557.281921 564.665710,581.422302 
	C565.932617,572.286194 567.202209,564.331970 568.014648,556.331421 
	C568.192444,554.580200 567.286072,551.904846 565.951477,550.945923 
	C557.054626,544.553284 548.270691,537.863220 538.754517,532.505249 
	C524.093506,524.250549 508.464722,518.029602 492.086060,513.573059 
	C492.436554,510.786499 492.759033,508.396820 493.499146,505.989105 
	C519.333740,501.499298 543.777588,505.490692 568.973694,515.353088 
	C566.998840,504.527496 565.545532,494.723480 563.363586,485.084381 
	C560.875366,474.092316 557.737732,463.247192 554.882385,452.338226 
M780.905212,661.325562 
	C780.425720,661.029236 779.946228,660.732971 779.229736,660.102295 
	C778.819458,660.072937 778.409180,660.043579 777.998901,660.014160 
	C778.300781,660.379517 778.602661,660.744812 779.120972,661.634766 
	C779.601257,661.930420 780.081604,662.226013 781.016479,663.074829 
	C781.749634,663.387878 782.482849,663.700928 783.216003,664.013916 
	C783.322937,663.796143 783.429871,663.578369 783.536865,663.360596 
	C782.738892,662.853821 781.940918,662.347107 780.905212,661.325562 
z"/>
<path fill="#232336" opacity="1.000000" stroke="none" 
	d="
M314.842285,586.182678 
	C304.498688,570.105408 298.948608,552.084961 293.420135,533.048035 
	C292.561890,535.868774 292.050476,537.985901 291.278320,540.003113 
	C289.217041,545.388123 287.504791,550.976929 284.801697,556.028809 
	C281.173187,562.810181 280.100586,562.938599 271.758606,561.556396 
	C272.232605,559.172180 272.704468,556.798645 273.316193,553.721802 
	C265.953491,557.492798 262.577148,567.646545 251.734528,564.370850 
	C252.782333,561.747498 253.775299,559.219910 254.799225,556.704834 
	C259.910126,544.150940 266.710083,531.993713 269.760254,518.958557 
	C274.608704,498.238251 272.467804,477.530396 264.167664,457.442688 
	C241.469604,402.509674 272.344238,342.335449 330.012665,328.588287 
	C335.326538,327.321533 340.943146,327.331848 346.264252,326.086914 
	C357.634705,323.426788 364.162079,330.663086 371.527161,337.967285 
	C372.099884,337.893707 372.138245,337.359772 372.176575,336.825806 
	C369.830536,333.653534 367.289917,330.599335 365.252075,327.240112 
	C364.605347,326.174072 364.680298,323.563690 365.469879,322.896362 
	C381.011414,309.761536 398.075134,299.602509 419.407959,296.422974 
	C428.056335,295.474945 435.970490,294.792572 443.884613,294.110229 
	C459.756866,295.766083 475.236816,299.105682 490.137909,304.914246 
	C491.827545,305.572876 493.515503,306.254639 495.138000,307.059235 
	C495.999908,307.486603 496.719543,308.200928 498.799957,309.753021 
	C493.565002,312.327332 489.094421,314.525757 484.023041,316.905090 
	C483.254028,317.406921 483.085785,317.727875 482.981628,318.049438 
	C483.045654,318.050018 483.055389,317.922363 482.669922,317.921936 
	C482.165680,318.284424 482.046936,318.647369 481.968628,319.011658 
	C482.009094,319.013000 482.013763,318.932190 481.762848,318.582947 
	C477.563019,320.634125 473.614075,323.034515 469.349243,325.570404 
	C467.005402,327.107483 464.977478,328.509094 462.631531,330.034332 
	C457.530212,334.064453 452.746887,337.970978 447.642395,341.988708 
	C442.337677,346.244751 437.140442,350.208588 434.661530,356.654114 
	C437.645721,357.280792 439.157501,367.523926 438.549347,383.276733 
	C436.118378,388.261597 433.175049,392.883881 431.986053,397.920349 
	C428.704346,411.821259 426.156006,425.895233 423.137482,440.789917 
	C427.116119,441.584961 431.085938,442.378296 434.977539,443.546875 
	C431.670349,460.121094 424.342468,474.619568 416.448944,488.917206 
	C415.346344,490.914398 414.653961,493.657196 415.004730,495.858337 
	C419.069794,521.366455 425.050415,546.154663 443.265015,566.242126 
	C442.473145,567.029053 441.776093,567.490417 440.907349,567.662720 
	C424.633789,548.501160 414.371796,526.662537 408.421356,501.839050 
	C405.546417,505.791229 403.124329,508.750763 401.177551,511.995514 
	C400.485443,513.149109 400.347351,515.324097 400.976654,516.475037 
	C407.269409,527.983704 413.178497,539.773438 420.432037,550.660339 
	C425.223877,557.852478 432.033386,563.700256 437.905853,570.494690 
	C436.563446,571.600464 435.254761,572.361450 433.558044,573.060669 
	C410.635925,568.118530 393.317596,554.636108 377.888428,538.844482 
	C368.738983,546.263916 360.276306,553.506836 351.412537,560.220093 
	C339.769653,569.038208 327.810852,577.439209 315.791626,586.032715 
	C315.325775,585.989502 315.074738,586.035095 314.842285,586.182678 
M374.230927,340.592804 
	C374.421356,340.380005 374.611816,340.167206 374.802246,339.954376 
	C374.494537,340.046417 374.186859,340.138458 374.516083,339.758881 
	C374.137512,339.548004 373.758942,339.337158 373.380371,339.126282 
	C373.575470,339.436768 373.770569,339.747223 374.230927,340.592804 
M346.260376,420.073517 
	C354.437378,420.841583 357.164368,417.541077 354.034576,409.867310 
	C349.062622,397.676697 339.780670,389.640076 327.582153,385.308807 
	C324.816711,384.326874 319.775879,384.840637 318.227600,386.700989 
	C316.622589,388.629456 316.926392,393.541199 318.237244,396.260101 
	C323.864441,407.931580 332.976776,416.020355 346.260376,420.073517 
z"/>
<path fill="#AF3146" opacity="1.000000" stroke="none" 
	d="
M315.987915,586.019592 
	C327.810852,577.439209 339.769653,569.038208 351.412537,560.220093 
	C360.276306,553.506836 368.738983,546.263916 377.888428,538.844482 
	C393.317596,554.636108 410.635925,568.118530 433.400452,573.347534 
	C432.075195,574.926758 430.670013,576.447754 428.940948,577.343628 
	C407.850769,588.272156 386.739838,599.161499 365.574158,609.942871 
	C357.186371,614.215454 348.649628,618.195679 339.195923,622.787354 
	C343.969208,627.348816 347.992615,631.193665 351.837555,635.335144 
	C350.850128,636.198059 350.091949,636.861084 349.224670,637.316162 
	C333.480804,645.578369 317.462799,653.359619 302.044647,662.188843 
	C287.224030,670.675903 274.051819,681.380798 265.128265,696.391052 
	C261.344574,702.755493 257.871735,709.306213 254.344559,715.819397 
	C253.997742,716.459839 254.262161,717.431335 254.242859,718.249146 
	C254.242874,718.249146 254.132919,718.026794 253.839493,718.092285 
	C251.457596,720.594360 249.071732,722.840820 247.360489,725.518433 
	C245.480362,728.460327 244.221436,731.799255 242.283630,735.810059 
	C240.935959,731.230896 239.716934,727.619812 238.838837,723.927673 
	C238.202103,721.250549 236.943573,718.050598 237.814407,715.800598 
	C241.814209,705.466003 246.000168,695.147644 251.006821,685.273499 
	C256.576294,674.289246 266.073975,666.458801 275.045807,658.319458 
	C275.368134,658.095581 275.690491,657.871704 276.392181,657.298157 
	C278.868469,655.379944 280.965393,653.811401 283.062347,652.242859 
	C284.628296,651.371155 286.194244,650.499451 288.291443,649.271240 
	C305.166016,639.893066 321.509369,630.871460 338.385803,621.555542 
	C335.339111,617.591187 332.086517,614.048340 329.632568,610.019165 
	C324.848053,602.163208 320.510529,594.035034 315.987915,586.019592 
z"/>
<path fill="#D64747" opacity="1.000000" stroke="none" 
	d="
M254.542267,718.102356 
	C254.262161,717.431335 253.997742,716.459839 254.344559,715.819397 
	C257.871735,709.306213 261.344574,702.755493 265.128265,696.391052 
	C274.051819,681.380798 287.224030,670.675903 302.044647,662.188843 
	C317.462799,653.359619 333.480804,645.578369 349.224670,637.316162 
	C350.091949,636.861084 350.850128,636.198059 352.208191,635.335327 
	C353.498474,635.059143 354.239685,635.079529 355.146179,635.384033 
	C363.448944,645.444885 374.131073,651.865906 384.852386,658.296814 
	C402.629944,668.960388 421.586426,676.087036 442.310638,678.167480 
	C430.714691,680.103210 419.185333,682.909241 407.509613,683.802368 
	C378.819855,685.996948 350.052124,687.149231 321.336243,689.033142 
	C300.335846,690.410889 280.911316,696.700134 263.915619,709.444458 
	C260.617889,711.917297 257.852570,715.100220 254.542267,718.102356 
z"/>
<path fill="#AE3146" opacity="1.000000" stroke="none" 
	d="
M554.725342,452.184143 
	C557.737732,463.247192 560.875366,474.092316 563.363586,485.084381 
	C565.545532,494.723480 566.998840,504.527496 568.973694,515.353088 
	C543.777588,505.490692 519.333740,501.499298 493.553345,505.580597 
	C494.084473,495.344269 495.762146,485.490845 495.666504,475.654633 
	C495.557831,464.476013 493.864044,453.312744 492.914917,442.086700 
	C492.970551,442.030579 493.082153,441.918640 493.533203,441.941284 
	C513.734375,444.940918 533.484497,447.917938 553.234619,450.894958 
	C553.679199,451.273315 554.123779,451.651672 554.725342,452.184143 
z"/>
<path fill="#AF3146" opacity="1.000000" stroke="none" 
	d="
M442.713989,678.157959 
	C421.586426,676.087036 402.629944,668.960388 384.852386,658.296814 
	C374.131073,651.865906 363.448944,645.444885 355.359039,635.106689 
	C357.294006,633.503235 359.131165,632.354797 361.076782,631.435974 
	C378.350983,623.278015 395.644348,615.160645 412.932098,607.031311 
	C423.488037,618.353210 433.222504,630.375183 439.572937,644.553040 
	C443.890167,654.191772 446.874725,664.433167 450.261810,674.470337 
	C450.500000,675.176208 449.136505,676.422668 448.172424,677.512268 
	C446.257172,677.787292 444.687256,677.967896 442.713989,678.157959 
z"/>
<path fill="#D64747" opacity="1.000000" stroke="none" 
	d="
M553.175293,450.521118 
	C533.484497,447.917938 513.734375,444.940918 493.499786,441.532104 
	C490.789978,430.890381 488.762482,420.632080 486.284485,410.483795 
	C483.725830,400.005157 480.729095,389.633423 477.924011,379.214905 
	C486.200104,374.313812 494.476196,369.412689 503.480164,364.080536 
	C523.299072,390.467224 542.411621,417.834717 553.175293,450.521118 
z"/>
<path fill="#B03348" opacity="1.000000" stroke="none" 
	d="
M343.663025,191.904434 
	C364.997864,203.663788 382.672852,220.071548 399.498505,237.261032 
	C410.133118,248.125626 419.215057,260.509979 428.793823,272.701233 
	C423.572540,278.306854 418.550781,283.423950 413.529053,288.541046 
	C407.268646,281.002106 401.321869,273.174042 394.689240,265.978180 
	C374.469818,244.041855 353.043854,223.400833 328.139069,205.733704 
	C327.958527,202.718704 328.068268,200.399445 327.989685,198.086609 
	C327.884827,194.998734 329.494110,193.506958 332.354889,193.155609 
	C336.118683,192.693329 339.893158,192.317459 343.663025,191.904434 
z"/>
<path fill="#D64747" opacity="1.000000" stroke="none" 
	d="
M315.791626,586.032715 
	C320.510529,594.035034 324.848053,602.163208 329.632568,610.019165 
	C332.086517,614.048340 335.339111,617.591187 338.385803,621.555542 
	C321.509369,630.871460 305.166016,639.893066 288.485901,648.992310 
	C283.133942,638.089172 280.949219,626.434692 279.520966,614.531921 
	C279.083679,610.887329 279.783447,608.760437 282.961792,606.800659 
	C293.539093,600.278687 303.940002,593.470581 314.625427,586.477417 
	C315.074738,586.035095 315.325775,585.989502 315.791626,586.032715 
z"/>
<path fill="#AF3146" opacity="1.000000" stroke="none" 
	d="
M477.637573,379.062561 
	C480.729095,389.633423 483.725830,400.005157 486.284485,410.483795 
	C488.762482,420.632080 490.789978,430.890381 493.048737,441.509491 
	C493.082153,441.918640 492.970551,442.030579 492.467896,442.036316 
	C486.363495,442.075806 480.761780,442.109497 475.086395,442.075409 
	C475.012756,442.007599 474.868439,441.868896 474.833130,441.495728 
	C473.978668,437.413879 473.159515,433.705200 472.351379,429.652924 
	C472.241180,428.871887 472.119934,428.434479 471.979980,427.596252 
	C471.565308,425.632050 471.169342,424.068634 470.762756,422.157135 
	C469.815918,418.583069 468.879791,415.357147 467.945312,411.731384 
	C463.767242,397.136200 459.536591,382.955536 455.426422,368.740051 
	C452.845276,359.812927 450.445007,350.833466 447.963562,341.877502 
	C452.746887,337.970978 457.530212,334.064453 462.647644,330.443420 
	C464.030121,334.711090 464.874542,338.761017 466.168243,342.661896 
	C469.115112,351.547394 472.282349,360.359802 475.254578,369.524078 
	C475.086487,370.290558 475.023804,370.734894 475.010498,371.522705 
	C475.715668,373.601288 476.371460,375.336395 477.027222,377.071503 
	C477.135193,377.684418 477.243134,378.297302 477.637573,379.062561 
z"/>
<path fill="#D64747" opacity="1.000000" stroke="none" 
	d="
M274.700043,658.186279 
	C266.073975,666.458801 256.576294,674.289246 251.006821,685.273499 
	C246.000168,695.147644 241.814209,705.466003 237.814407,715.800598 
	C236.943573,718.050598 238.202103,721.250549 238.838837,723.927673 
	C239.716934,727.619812 240.935959,731.230896 242.283630,735.810059 
	C244.221436,731.799255 245.480362,728.460327 247.360489,725.518433 
	C249.071732,722.840820 251.457596,720.594360 253.911438,718.193359 
	C249.494690,725.393677 244.640778,732.526001 243.708679,741.399780 
	C227.304733,725.557922 230.832825,663.009460 248.921371,639.995789 
	C257.431824,646.038147 265.893036,652.045593 274.700043,658.186279 
z"/>
<path fill="#D64848" opacity="1.000000" stroke="none" 
	d="
M475.360046,369.201904 
	C472.282349,360.359802 469.115112,351.547394 466.168243,342.661896 
	C464.874542,338.761017 464.030121,334.711090 462.965637,330.319763 
	C464.977478,328.509094 467.005402,327.107483 469.659973,325.913940 
	C470.854004,326.260376 471.421387,326.398773 471.974426,326.874268 
	C473.294769,328.652496 474.629425,330.093597 475.964111,331.534698 
	C479.748444,335.851257 483.303101,340.402374 487.393066,344.406799 
	C490.421326,347.371735 490.325317,349.769440 487.921478,352.881317 
	C484.803955,356.917084 481.933990,361.144165 478.975281,365.649078 
	C478.993073,366.009277 478.972473,365.961517 478.659180,365.976898 
	C477.350586,367.062164 476.355316,368.132050 475.360046,369.201904 
z"/>
<path fill="#2B2A3C" opacity="1.000000" stroke="none" 
	d="
M343.437286,191.621613 
	C339.893158,192.317459 336.118683,192.693329 332.354889,193.155609 
	C329.494110,193.506958 327.884827,194.998734 327.989685,198.086609 
	C328.068268,200.399445 327.958527,202.718704 327.897705,205.486694 
	C324.364258,204.333588 320.804596,202.846909 317.391541,201.077316 
	C315.515839,200.104767 313.887115,198.655838 310.904633,196.540497 
	C311.096924,200.235077 311.624084,202.907761 311.248077,205.446701 
	C310.934723,207.562592 309.561707,209.521545 308.658020,211.550018 
	C306.617920,210.314392 304.151550,209.438751 302.693085,207.711884 
	C301.777344,206.627594 301.729828,203.959259 302.407990,202.531174 
	C304.943451,197.192261 305.209564,192.340057 299.392670,187.211716 
	C315.229095,185.910934 329.227203,188.541595 343.437286,191.621613 
M324.422699,198.720123 
	C324.837280,197.053940 325.251892,195.387756 325.666473,193.721573 
	C325.103516,193.385330 324.540527,193.049103 323.977570,192.712860 
	C322.330414,194.944534 320.683228,197.176193 319.073883,199.356613 
	C321.276855,202.005707 322.864594,202.397339 324.422699,198.720123 
z"/>
<path fill="#7E1225" opacity="1.000000" stroke="none" 
	d="
M443.810455,293.771790 
	C435.970490,294.792572 428.056335,295.474945 419.720428,296.191711 
	C418.231018,294.722961 417.163391,293.219849 416.339844,291.218475 
	C421.760345,286.137054 426.936768,281.553925 432.113159,276.970764 
	C435.987518,282.458313 439.861908,287.945831 443.810455,293.771790 
z"/>
<path fill="#D74C4C" opacity="1.000000" stroke="none" 
	d="
M282.792358,652.015503 
	C280.965393,653.811401 278.868469,655.379944 276.437195,657.001038 
	C266.764313,652.497253 259.818604,645.133789 253.923553,636.923706 
	C252.851288,635.430359 255.146545,631.518921 255.743118,629.267639 
	C265.243561,637.257202 273.882996,644.522644 282.792358,652.015503 
z"/>
<path fill="#D85151" opacity="1.000000" stroke="none" 
	d="
M477.333374,376.931274 
	C476.371460,375.336395 475.715668,373.601288 475.396332,371.588287 
	C476.812683,369.527435 477.892578,367.744476 478.972473,365.961517 
	C478.972473,365.961517 478.993073,366.009277 478.970825,365.998230 
	C480.076782,365.282104 481.524384,364.820129 482.277954,363.829987 
	C485.572540,359.501038 488.665802,355.018860 492.090363,350.231323 
	C493.363495,351.620544 494.533600,352.897308 496.290924,354.814819 
	C490.005341,362.220856 483.822418,369.505920 477.333374,376.931274 
z"/>
<path fill="#313042" opacity="1.000000" stroke="none" 
	d="
M476.239258,331.298828 
	C474.629425,330.093597 473.294769,328.652496 472.281372,326.681152 
	C475.739716,323.744659 478.876740,321.338409 482.013763,318.932190 
	C482.013763,318.932190 482.009094,319.013000 482.296387,319.038635 
	C482.740936,318.683624 482.898163,318.303009 483.055389,317.922363 
	C483.055389,317.922363 483.045654,318.050018 483.262543,318.060059 
	C483.656982,318.010040 483.834503,317.949982 484.011963,317.889923 
	C483.992035,319.080688 484.433105,320.587494 483.871368,321.406830 
	C481.586243,324.740143 478.993683,327.862701 476.239258,331.298828 
z"/>
<path fill="#AA3145" opacity="1.000000" stroke="none" 
	d="
M432.047516,276.662170 
	C426.936768,281.553925 421.760345,286.137054 416.290039,290.881653 
	C415.351074,290.578094 414.705994,290.113098 414.331787,289.306152 
	C419.747528,283.955048 424.892395,278.945831 430.037231,273.936615 
	C430.685455,274.742279 431.333679,275.547943 432.047516,276.662170 
z"/>
<path fill="#841528" opacity="1.000000" stroke="none" 
	d="
M429.998169,273.693787 
	C424.892395,278.945831 419.747528,283.955048 414.253540,289.016357 
	C413.904419,289.068451 413.622314,288.872406 413.575684,288.706726 
	C418.550781,283.423950 423.572540,278.306854 428.903259,273.027039 
	C429.566589,272.925659 429.815552,273.121185 429.998169,273.693787 
z"/>
<path fill="#CCCCD0" opacity="1.000000" stroke="none" 
	d="
M791.782593,670.126282 
	C788.666992,668.416565 786.014221,666.640259 783.361511,664.863953 
	C783.591736,664.507141 783.821960,664.150269 784.052246,663.793396 
	C786.973816,665.630615 789.895447,667.467834 792.991333,669.599243 
	C792.858948,669.948792 792.552185,670.004211 791.782593,670.126282 
z"/>
<path fill="#E6E6E8" opacity="1.000000" stroke="none" 
	d="
M484.006927,317.692139 
	C483.834503,317.949982 483.656982,318.010040 483.198486,318.059479 
	C483.085785,317.727875 483.254028,317.406921 483.716766,317.092407 
	C484.011292,317.098846 484.001862,317.494385 484.006927,317.692139 
z"/>
<path fill="#E9A85B" opacity="1.000000" stroke="none" 
	d="
M493.461914,364.335815 
	C493.744965,364.310455 493.844788,364.429993 493.944641,364.549530 
	C493.722656,364.526581 493.500671,364.503662 493.461914,364.335815 
z"/>
<path fill="#303142" opacity="1.000000" stroke="none" 
	d="
M317.042542,228.412552 
	C317.427032,226.832764 317.774200,225.641769 318.221313,224.107803 
	C319.274750,230.348541 320.429749,236.067444 321.069794,241.843414 
	C321.213776,243.142426 319.559631,244.640701 318.733246,246.047256 
	C317.741516,244.731476 315.907684,243.413254 315.911530,242.100372 
	C315.924408,237.666336 316.589478,233.234192 317.042542,228.412552 
z"/>
<path fill="#AF3146" opacity="1.000000" stroke="none" 
	d="
M489.212585,528.552795 
	C498.513519,534.337646 508.526184,539.246399 516.959900,546.098572 
	C532.220276,558.497192 546.143372,572.403809 557.435974,588.728333 
	C559.654419,591.935303 560.281860,594.645020 558.883667,598.354858 
	C549.535156,623.159729 532.545776,641.087280 509.538177,653.636780 
	C503.432678,656.966980 497.168976,660.007080 490.602753,663.372681 
	C476.691650,631.680298 450.628906,615.387329 419.552368,604.472412 
	C427.184113,599.036926 435.231293,594.166565 443.028717,588.924744 
	C460.864807,576.934448 474.898193,561.597107 483.608551,541.729858 
	C485.524994,537.358704 487.347076,532.946228 489.212585,528.552795 
z"/>
<path fill="#7E1023" opacity="1.000000" stroke="none" 
	d="
M489.154297,528.239136 
	C487.347076,532.946228 485.524994,537.358704 483.608551,541.729858 
	C474.898193,561.597107 460.864807,576.934448 443.028717,588.924744 
	C435.231293,594.166565 427.184113,599.036926 419.179321,604.384888 
	C417.259094,605.345154 415.409882,605.996521 413.246399,606.839600 
	C395.644348,615.160645 378.350983,623.278015 361.076782,631.435974 
	C359.131165,632.354797 357.294006,633.503235 355.193726,634.822510 
	C354.239685,635.079529 353.498474,635.059143 352.386658,635.038696 
	C347.992615,631.193665 343.969208,627.348816 339.195923,622.787354 
	C348.649628,618.195679 357.186371,614.215454 365.574158,609.942871 
	C386.739838,599.161499 407.850769,588.272156 428.940948,577.343628 
	C430.670013,576.447754 432.075195,574.926758 433.788452,573.409363 
	C435.254761,572.361450 436.563446,571.600464 438.231628,570.423340 
	C439.420380,569.322144 440.249695,568.636963 441.078979,567.951782 
	C441.776093,567.490417 442.473145,567.029053 443.571777,566.183716 
	C453.813812,557.380737 461.671967,547.429016 466.960083,535.573608 
	C473.113464,521.778381 475.965149,507.255371 477.190308,492.206665 
	C478.560150,475.380646 478.537170,458.723267 475.160034,442.143219 
	C480.761780,442.109497 486.363495,442.075806 492.412262,442.092468 
	C493.864044,453.312744 495.557831,464.476013 495.666504,475.654633 
	C495.762146,485.490845 494.084473,495.344269 493.135742,505.598602 
	C492.759033,508.396820 492.436554,510.786499 492.019287,513.963928 
	C491.271667,518.159180 490.618774,521.566650 489.965881,524.974182 
	C489.675934,525.957947 489.385986,526.941711 489.154297,528.239136 
z"/>
<path fill="#AD3146" opacity="1.000000" stroke="none" 
	d="
M490.327637,525.052246 
	C490.618774,521.566650 491.271667,518.159180 491.991272,514.360779 
	C508.464722,518.029602 524.093506,524.250549 538.754517,532.505249 
	C548.270691,537.863220 557.054626,544.553284 565.951477,550.945923 
	C567.286072,551.904846 568.192444,554.580200 568.014648,556.331421 
	C567.202209,564.331970 565.932617,572.286194 564.665710,581.422302 
	C542.903564,557.281921 520.713928,535.988037 490.327637,525.052246 
z"/>
<path fill="#CCCCD0" opacity="1.000000" stroke="none" 
	d="
M778.904541,661.110168 
	C778.602661,660.744812 778.300781,660.379517 777.998901,660.014160 
	C778.409180,660.043579 778.819458,660.072937 779.206238,660.437439 
	C779.182739,660.772583 778.904541,661.110168 778.904541,661.110168 
z"/>
<path fill="#CCCCD0" opacity="1.000000" stroke="none" 
	d="
M781.142944,661.840332 
	C781.940918,662.347107 782.738892,662.853821 783.536865,663.360596 
	C783.429871,663.578369 783.322937,663.796143 783.216003,664.013916 
	C782.482849,663.700928 781.749634,663.387878 780.934448,662.627869 
	C780.852356,662.180908 781.142944,661.840332 781.142944,661.840332 
z"/>
<path fill="#CCCCD0" opacity="1.000000" stroke="none" 
	d="
M780.707153,662.351257 
	C780.081604,662.226013 779.601257,661.930420 779.012756,661.372437 
	C778.904541,661.110168 779.182739,660.772583 779.324707,660.604614 
	C779.946228,660.732971 780.425720,661.029236 781.024048,661.582947 
	C781.142944,661.840332 780.852356,662.180908 780.707153,662.351257 
z"/>
<path fill="#AF3146" opacity="1.000000" stroke="none" 
	d="
M475.086395,442.075409 
	C478.537170,458.723267 478.560150,475.380646 477.190308,492.206665 
	C475.965149,507.255371 473.113464,521.778381 466.960083,535.573608 
	C461.671967,547.429016 453.813812,557.380737 443.666595,565.858154 
	C425.050415,546.154663 419.069794,521.366455 415.004730,495.858337 
	C414.653961,493.657196 415.346344,490.914398 416.448944,488.917206 
	C424.342468,474.619568 431.670349,460.121094 435.303711,443.408325 
	C437.061920,442.564850 438.415771,442.235199 440.249268,441.961548 
	C444.697510,441.876068 448.666138,441.616669 452.634674,441.618469 
	C460.045959,441.621826 467.457184,441.776917 474.868439,441.868896 
	C474.868439,441.868896 475.012756,442.007599 475.086395,442.075409 
z"/>
<path fill="#D54747" opacity="1.000000" stroke="none" 
	d="
M447.642395,341.988708 
	C450.445007,350.833466 452.845276,359.812927 455.426422,368.740051 
	C459.536591,382.955536 463.767242,397.136200 467.487671,411.697235 
	C458.966217,411.233124 450.882446,410.554199 442.865601,409.407532 
	C441.692383,409.239685 440.079803,406.906677 439.962708,405.470184 
	C439.356476,398.033356 439.170197,390.562286 438.837494,383.103149 
	C439.157501,367.523926 437.645721,357.280792 434.661530,356.654114 
	C437.140442,350.208588 442.337677,346.244751 447.642395,341.988708 
z"/>
<path fill="#FAF6F5" opacity="1.000000" stroke="none" 
	d="
M438.549347,383.276733 
	C439.170197,390.562286 439.356476,398.033356 439.962708,405.470184 
	C440.079803,406.906677 441.692383,409.239685 442.865601,409.407532 
	C450.882446,410.554199 458.966217,411.233124 467.486023,412.097046 
	C468.879791,415.357147 469.815918,418.583069 470.418427,422.298004 
	C459.590912,426.128174 449.097015,429.469360 437.748108,433.082794 
	C437.651855,433.658112 437.313568,435.679596 436.911407,438.082764 
	C449.958099,437.758575 461.237335,433.789673 471.998688,427.997040 
	C472.119934,428.434479 472.241180,428.871887 472.094543,429.903046 
	C462.245361,437.402832 451.030945,439.720123 439.769623,441.905548 
	C438.415771,442.235199 437.061920,442.564850 435.381897,443.033081 
	C431.085938,442.378296 427.116119,441.584961 423.137482,440.789917 
	C426.156006,425.895233 428.704346,411.821259 431.986053,397.920349 
	C433.175049,392.883881 436.118378,388.261597 438.549347,383.276733 
M434.874725,428.333435 
	C437.374512,427.662262 439.859161,426.926849 442.377136,426.332764 
	C448.503143,424.887329 454.689545,423.669525 460.748993,421.989899 
	C462.308502,421.557587 463.488129,419.754913 464.842285,418.581787 
	C463.235199,417.794617 461.698395,416.619873 460.004303,416.312866 
	C457.573853,415.872437 454.894562,416.546051 452.558441,415.894562 
	C446.193481,414.119476 438.375854,415.744995 434.663391,409.053436 
	C432.967712,417.034698 431.268433,425.495300 429.330811,433.900940 
	C428.655273,436.831421 429.363068,438.033569 432.301270,437.709686 
	C433.008759,434.745728 433.695343,431.869446 434.874725,428.333435 
z"/>
<path fill="#FDFDFD" opacity="1.000000" stroke="none" 
	d="
M345.873688,420.036926 
	C332.976776,416.020355 323.864441,407.931580 318.237244,396.260101 
	C316.926392,393.541199 316.622589,388.629456 318.227600,386.700989 
	C319.775879,384.840637 324.816711,384.326874 327.582153,385.308807 
	C339.780670,389.640076 349.062622,397.676697 354.034576,409.867310 
	C357.164368,417.541077 354.437378,420.841583 345.873688,420.036926 
z"/>
<path fill="#AA3045" opacity="1.000000" stroke="none" 
	d="
M440.907349,567.662720 
	C440.249695,568.636963 439.420380,569.322144 438.265320,570.078613 
	C432.033386,563.700256 425.223877,557.852478 420.432037,550.660339 
	C413.178497,539.773438 407.269409,527.983704 400.976654,516.475037 
	C400.347351,515.324097 400.485443,513.149109 401.177551,511.995514 
	C403.124329,508.750763 405.546417,505.791229 408.421356,501.839050 
	C414.371796,526.662537 424.633789,548.501160 440.907349,567.662720 
z"/>
<path fill="#E6E6E8" opacity="1.000000" stroke="none" 
	d="
M481.762848,318.582947 
	C478.876740,321.338409 475.739716,323.744659 472.295715,326.344055 
	C471.421387,326.398773 470.854004,326.260376 469.975891,325.778442 
	C473.614075,323.034515 477.563019,320.634125 481.762848,318.582947 
z"/>
<path fill="#E6E6E8" opacity="1.000000" stroke="none" 
	d="
M482.669922,317.921936 
	C482.898163,318.303009 482.740936,318.683624 482.255920,319.037292 
	C482.046936,318.647369 482.165680,318.284424 482.669922,317.921936 
z"/>
<path fill="#F9F7F7" opacity="1.000000" stroke="none" 
	d="
M372.020874,337.083740 
	C372.138245,337.359772 372.099884,337.893707 371.827515,338.153595 
	C371.684052,337.700226 371.774628,337.520966 372.020874,337.083740 
z"/>
<path fill="#F9F7F7" opacity="1.000000" stroke="none" 
	d="
M373.965698,340.057709 
	C373.770569,339.747223 373.575470,339.436768 373.380371,339.126282 
	C373.758942,339.337158 374.137512,339.548004 374.216064,339.949890 
	C373.916046,340.140900 373.965698,340.057709 373.965698,340.057709 
z"/>
<path fill="#F9F7F7" opacity="1.000000" stroke="none" 
	d="
M373.897614,340.185699 
	C374.186859,340.138458 374.494537,340.046417 374.802246,339.954407 
	C374.611816,340.167206 374.421356,340.380005 374.098328,340.325256 
	C373.965698,340.057709 373.916046,340.140900 373.897614,340.185699 
z"/>
<path fill="#D84E4E" opacity="1.000000" stroke="none" 
	d="
M471.979980,427.596252 
	C461.237335,433.789673 449.958099,437.758575 436.911407,438.082764 
	C437.313568,435.679596 437.651855,433.658112 437.748108,433.082794 
	C449.097015,429.469360 459.590912,426.128174 470.429077,422.646118 
	C471.169342,424.068634 471.565308,425.632050 471.979980,427.596252 
z"/>
<path fill="#D64B4C" opacity="1.000000" stroke="none" 
	d="
M440.249268,441.961548 
	C451.030945,439.720123 462.245361,437.402832 472.083496,430.246643 
	C473.159515,433.705200 473.978668,437.413879 474.833130,441.495728 
	C467.457184,441.776917 460.045959,441.621826 452.634674,441.618469 
	C448.666138,441.616669 444.697510,441.876068 440.249268,441.961548 
z"/>
<path fill="#F9F7F7" opacity="1.000000" stroke="none" 
	d="
M478.659180,365.976898 
	C477.892578,367.744476 476.812683,369.527435 475.346954,371.244812 
	C475.023804,370.734894 475.086487,370.290558 475.254578,369.524078 
	C476.355316,368.132050 477.350586,367.062164 478.659180,365.976898 
z"/>
<path fill="#A23044" opacity="1.000000" stroke="none" 
	d="
M324.273224,199.043716 
	C322.864594,202.397339 321.276855,202.005707 319.073883,199.356613 
	C320.683228,197.176193 322.330414,194.944534 323.977570,192.712860 
	C324.540527,193.049103 325.103516,193.385330 325.666473,193.721573 
	C325.251892,195.387756 324.837280,197.053940 324.273224,199.043716 
z"/>
<path fill="#B48F7B" opacity="1.000000" stroke="none" 
	d="
M434.628296,428.663269 
	C433.695343,431.869446 433.008759,434.745728 432.301270,437.709686 
	C429.363068,438.033569 428.655273,436.831421 429.330811,433.900940 
	C431.268433,425.495300 432.967712,417.034698 434.663391,409.053436 
	C438.375854,415.744995 446.193481,414.119476 452.558441,415.894562 
	C454.894562,416.546051 457.573853,415.872437 460.004303,416.312866 
	C461.698395,416.619873 463.235199,417.794617 464.842285,418.581787 
	C463.488129,419.754913 462.308502,421.557587 460.748993,421.989899 
	C454.689545,423.669525 448.503143,424.887329 442.377136,426.332764 
	C439.859161,426.926849 437.374512,427.662262 434.628296,428.663269 
z"/>
</svg>